# xmcd
#
# Track frame offsets: 
#        150
#        21067
#        49531
#        61762
#        79971
#        123970
#        141166
#        159645
#        184657
#        204288
#        228262
#        246832
#        270005
#        286229
#        300726
#
# Disc length: 4164 seconds
#
# Revision: 1
# Processed by: cddbd v1.5.2PL0 Copyright (c) Steve Scherf et al.
# Submitted via: ExactAudioCopy v0.95b4
#
DISCID=bd10420f
DTITLE=James Booker - A Taste of Honey [CD1]
DYEAR=1977
DGENRE=NOLA
TTITLE0=01. Let Them Talk
TTITLE1=02. A Taste of Honey
TTITLE2=03. Sunny Side of the Street
TTITLE3=04. Come Rain or Come Shine
TTITLE4=05. Classified
TTITLE5=06. Life
TTITLE6=07. Please Send me Someone to Love
TTITLE7=08. Junco Partner
TTITLE8=09. Baby Won't You Please Come Home
TTITLE9=10. Papa Was A Rascal
TTITLE10=11. Tico Tico
TTITLE11=12. A Taste Of Honey
TTITLE12=13. St. James Infirmary
TTITLE13=14. Please Send Me Someone To Love
TTITLE14=15. Something
EXTD=
EXTT0=
EXTT1=
EXTT2=
EXTT3=
EXTT4=
EXTT5=
EXTT6=
EXTT7=
EXTT8=
EXTT9=
EXTT10=
EXTT11=
EXTT12=
EXTT13=
EXTT14=
PLAYORDER=
